<svg width="10" height="13" viewBox="0 0 10 13" fill="none" xmlns="http://www.w3.org/2000/svg">
<path fill-rule="evenodd" clip-rule="evenodd" d="M4.85267 0.0615567L2.43896 2.4965C2.30772 2.62889 2.40068 2.85527 2.58628 2.85527H4.375V7.68908C4.375 8.03729 4.65482 8.31958 5 8.31958C5.34518 8.31958 5.625 8.03729 5.625 7.68908V2.85528L7.41366 2.85527C7.59933 2.85527 7.69225 2.62889 7.561 2.4965L5.1473 0.0615558C5.06594 -0.0205189 4.93403 -0.0205186 4.85267 0.0615567ZM1.45834 5.37731C1.34328 5.37731 1.25 5.4714 1.25 5.58748V11.0518C1.25 11.1678 1.34328 11.2619 1.45834 11.2619H8.54166C8.65675 11.2619 8.75 11.1678 8.75 11.0518V5.58748C8.75 5.4714 8.65675 5.37731 8.54166 5.37731H7.70833C7.36316 5.37731 7.08333 5.09502 7.08333 4.74681C7.08333 4.39859 7.36316 4.11632 7.70833 4.11632H8.54166C9.34708 4.11632 10 4.77498 10 5.58748V11.0518C10 11.8643 9.34708 12.5229 8.54166 12.5229H1.45834C0.652918 12.5229 0 11.8643 0 11.0518V5.58748C0 4.77498 0.652918 4.11632 1.45834 4.11632H2.29167C2.63685 4.11632 2.91667 4.39859 2.91667 4.74681C2.91667 5.09502 2.63685 5.37731 2.29167 5.37731H1.45834Z" fill="#242424"/>
</svg>
