<svg width="13" height="12" viewBox="0 0 13 12" fill="none" xmlns="http://www.w3.org/2000/svg">
<path d="M4.17429 11.1866H9.53742C10.9203 11.1866 12.0408 10.1604 12.0408 9.01726V3.93312L8.64055 1.00665H4.17429C2.79205 1.00665 1.60046 1.9324 1.60046 3.07503V5.24443" stroke="#242424" stroke-width="1.1" stroke-linecap="round" stroke-linejoin="round"/>
<path d="M8.46497 1V2.61355C8.46497 3.40118 9.23631 4.04017 10.1889 4.04183C11.073 4.0435 11.9773 4.04405 12.0384 4.04072" stroke="#242424" stroke-width="1.1" stroke-linecap="round" stroke-linejoin="round"/>
<path fill-rule="evenodd" clip-rule="evenodd" d="M2.12244 9.41642C2.12244 8.35743 3.182 7.50076 4.4845 7.50663L4.73251 7.50774V9.15267C4.73251 9.33798 5.00412 9.43425 5.17113 9.30819L8.18064 7.03593C8.29185 6.95197 8.29185 6.80886 8.18064 6.7249L5.17112 4.4527C5.00412 4.3266 4.73251 4.42291 4.73251 4.60821V6.23438L4.49317 6.23331C2.32257 6.22354 0.556396 7.65132 0.556396 9.41642V10.276C0.556396 10.6276 0.906967 10.9127 1.33942 10.9127C1.77187 10.9127 2.12244 10.6276 2.12244 10.276V9.41642Z" fill="#242424"/>
</svg>
